<mxfile host="app.diagrams.net" modified="2022-08-26T09:00:19.786Z" agent="5.0 (Windows NT 10.0; WOW64) AppleWebKit/537.36 (KHTML, like Gecko) Chrome/96.0.4664.93 Safari/537.36" etag="c8gcm74u5OsjX1Y72tg2" version="20.2.7" type="github">
  <diagram id="y-8d7s2m_3A8iTxBCaHQ" name="第 1 页">
    <mxGraphModel dx="825" dy="458" grid="1" gridSize="10" guides="1" tooltips="1" connect="1" arrows="1" fold="1" page="1" pageScale="1" pageWidth="827" pageHeight="1169" math="0" shadow="0">
      <root>
        <mxCell id="0" />
        <mxCell id="1" parent="0" />
        <mxCell id="Il4r_xvN1UmDkrC7rbbu-6" value="" style="rounded=0;whiteSpace=wrap;html=1;dashed=1;dashPattern=1 2;fontSize=8;" vertex="1" parent="1">
          <mxGeometry x="204" y="440" width="416" height="280" as="geometry" />
        </mxCell>
        <mxCell id="Il4r_xvN1UmDkrC7rbbu-57" value="" style="rounded=0;whiteSpace=wrap;html=1;fillColor=#ffe6cc;strokeColor=none;fontSize=8;" vertex="1" parent="1">
          <mxGeometry x="205" y="739" width="235" height="70" as="geometry" />
        </mxCell>
        <mxCell id="Il4r_xvN1UmDkrC7rbbu-15" value="" style="endArrow=none;html=1;rounded=0;entryX=0.5;entryY=0;entryDx=0;entryDy=0;exitX=0.5;exitY=1;exitDx=0;exitDy=0;fontSize=8;" edge="1" parent="1" source="Il4r_xvN1UmDkrC7rbbu-46" target="Il4r_xvN1UmDkrC7rbbu-36">
          <mxGeometry width="50" height="50" relative="1" as="geometry">
            <mxPoint x="-20" y="540" as="sourcePoint" />
            <mxPoint x="80" y="538.93" as="targetPoint" />
          </mxGeometry>
        </mxCell>
        <mxCell id="Il4r_xvN1UmDkrC7rbbu-7" value="&lt;font style=&quot;font-size: 8px;&quot;&gt;广汽TKE&lt;/font&gt;" style="rounded=0;whiteSpace=wrap;html=1;fillColor=none;strokeColor=none;fontSize=8;" vertex="1" parent="1">
          <mxGeometry x="204" y="440" width="66" height="20" as="geometry" />
        </mxCell>
        <mxCell id="Il4r_xvN1UmDkrC7rbbu-18" value="" style="rounded=0;whiteSpace=wrap;html=1;fillColor=#d5e8d4;strokeColor=none;fontSize=8;" vertex="1" parent="1">
          <mxGeometry x="240" y="470" width="170" height="60" as="geometry" />
        </mxCell>
        <mxCell id="Il4r_xvN1UmDkrC7rbbu-19" value="容器" style="rounded=0;whiteSpace=wrap;html=1;fillColor=#dae8fc;strokeColor=#6c8ebf;fontSize=8;" vertex="1" parent="1">
          <mxGeometry x="255" y="500" width="30" height="20" as="geometry" />
        </mxCell>
        <mxCell id="Il4r_xvN1UmDkrC7rbbu-20" value="容器" style="rounded=0;whiteSpace=wrap;html=1;fillColor=#dae8fc;strokeColor=#6c8ebf;fontSize=8;" vertex="1" parent="1">
          <mxGeometry x="292" y="500" width="30" height="20" as="geometry" />
        </mxCell>
        <mxCell id="Il4r_xvN1UmDkrC7rbbu-21" value="容器" style="rounded=0;whiteSpace=wrap;html=1;fillColor=#dae8fc;strokeColor=#6c8ebf;fontSize=8;" vertex="1" parent="1">
          <mxGeometry x="329" y="500" width="30" height="20" as="geometry" />
        </mxCell>
        <mxCell id="Il4r_xvN1UmDkrC7rbbu-23" value="日志空间" style="rounded=0;whiteSpace=wrap;html=1;strokeColor=none;fillColor=none;fontSize=8;" vertex="1" parent="1">
          <mxGeometry x="240" y="470" width="60" height="20" as="geometry" />
        </mxCell>
        <mxCell id="Il4r_xvN1UmDkrC7rbbu-25" value="" style="rounded=0;whiteSpace=wrap;html=1;fillColor=#d5e8d4;strokeColor=none;fontSize=8;" vertex="1" parent="1">
          <mxGeometry x="583.3199999999999" y="750" width="370" height="135" as="geometry" />
        </mxCell>
        <mxCell id="Il4r_xvN1UmDkrC7rbbu-24" value="容器" style="rounded=0;whiteSpace=wrap;html=1;fillColor=#dae8fc;strokeColor=#6c8ebf;fontSize=8;" vertex="1" parent="1">
          <mxGeometry x="366" y="500" width="30" height="20" as="geometry" />
        </mxCell>
        <mxCell id="Il4r_xvN1UmDkrC7rbbu-26" value="网关服务" style="rounded=0;whiteSpace=wrap;html=1;fillColor=#dae8fc;strokeColor=#6c8ebf;fontSize=8;" vertex="1" parent="1">
          <mxGeometry x="257" y="585" width="53" height="20" as="geometry" />
        </mxCell>
        <mxCell id="Il4r_xvN1UmDkrC7rbbu-27" value="业务空间" style="rounded=0;whiteSpace=wrap;html=1;fillColor=none;strokeColor=none;fontSize=8;" vertex="1" parent="1">
          <mxGeometry x="240" y="555" width="60" height="20" as="geometry" />
        </mxCell>
        <mxCell id="Il4r_xvN1UmDkrC7rbbu-28" value="COT服务" style="rounded=0;whiteSpace=wrap;html=1;fillColor=#dae8fc;strokeColor=#6c8ebf;fontSize=8;" vertex="1" parent="1">
          <mxGeometry x="450" y="585" width="53" height="20" as="geometry" />
        </mxCell>
        <mxCell id="Il4r_xvN1UmDkrC7rbbu-29" value="API认证服务" style="rounded=0;whiteSpace=wrap;html=1;fillColor=#dae8fc;strokeColor=#6c8ebf;fontSize=8;" vertex="1" parent="1">
          <mxGeometry x="322" y="585" width="78" height="20" as="geometry" />
        </mxCell>
        <mxCell id="Il4r_xvN1UmDkrC7rbbu-30" value="CCC服务" style="rounded=0;whiteSpace=wrap;html=1;fillColor=#dae8fc;strokeColor=#6c8ebf;fontSize=8;" vertex="1" parent="1">
          <mxGeometry x="393" y="585" width="55" height="20" as="geometry" />
        </mxCell>
        <mxCell id="Il4r_xvN1UmDkrC7rbbu-33" value="" style="sketch=0;aspect=fixed;pointerEvents=1;shadow=0;dashed=0;html=1;strokeColor=none;labelPosition=center;verticalLabelPosition=bottom;verticalAlign=top;align=center;fillColor=#00188D;shape=mxgraph.mscae.enterprise.internet;fontSize=8;" vertex="1" parent="1">
          <mxGeometry x="89" y="240" width="50" height="31" as="geometry" />
        </mxCell>
        <mxCell id="Il4r_xvN1UmDkrC7rbbu-35" value="" style="endArrow=none;html=1;rounded=0;entryX=0;entryY=0.529;entryDx=0;entryDy=0;entryPerimeter=0;fontSize=8;" edge="1" parent="1">
          <mxGeometry width="50" height="50" relative="1" as="geometry">
            <mxPoint x="110" y="537.8299999999999" as="sourcePoint" />
            <mxPoint x="204" y="538.05" as="targetPoint" />
          </mxGeometry>
        </mxCell>
        <mxCell id="Il4r_xvN1UmDkrC7rbbu-36" value="内网负载均衡" style="rounded=0;whiteSpace=wrap;html=1;fillColor=#dae8fc;strokeColor=#6c8ebf;fontSize=8;" vertex="1" parent="1">
          <mxGeometry x="80" y="528" width="76" height="20" as="geometry" />
        </mxCell>
        <mxCell id="Il4r_xvN1UmDkrC7rbbu-39" value="" style="rounded=0;whiteSpace=wrap;html=1;fillColor=#ffe6cc;strokeColor=none;fontSize=8;" vertex="1" parent="1">
          <mxGeometry x="739.3199999999999" y="505" width="160" height="80" as="geometry" />
        </mxCell>
        <mxCell id="Il4r_xvN1UmDkrC7rbbu-34" value="PKI系统" style="rounded=0;whiteSpace=wrap;html=1;fillColor=#dae8fc;strokeColor=#6c8ebf;fontSize=8;" vertex="1" parent="1">
          <mxGeometry x="829.3199999999999" y="537" width="60" height="25" as="geometry" />
        </mxCell>
        <mxCell id="Il4r_xvN1UmDkrC7rbbu-40" value="银基TKE" style="rounded=0;whiteSpace=wrap;html=1;strokeColor=none;fillColor=none;fontSize=8;" vertex="1" parent="1">
          <mxGeometry x="739.3199999999999" y="505" width="58" height="20" as="geometry" />
        </mxCell>
        <mxCell id="Il4r_xvN1UmDkrC7rbbu-41" value="VPN" style="rounded=0;whiteSpace=wrap;html=1;fillColor=#dae8fc;strokeColor=#6c8ebf;fontSize=8;" vertex="1" parent="1">
          <mxGeometry x="660.3199999999999" y="535" width="30" height="20" as="geometry" />
        </mxCell>
        <mxCell id="Il4r_xvN1UmDkrC7rbbu-42" value="" style="endArrow=none;html=1;rounded=0;entryX=0;entryY=0.5;entryDx=0;entryDy=0;exitX=1.003;exitY=0.526;exitDx=0;exitDy=0;exitPerimeter=0;fontSize=8;" edge="1" parent="1" target="Il4r_xvN1UmDkrC7rbbu-41">
          <mxGeometry width="50" height="50" relative="1" as="geometry">
            <mxPoint x="599.9979999999998" y="544.94" as="sourcePoint" />
            <mxPoint x="649.3199999999999" y="545" as="targetPoint" />
          </mxGeometry>
        </mxCell>
        <mxCell id="Il4r_xvN1UmDkrC7rbbu-43" value="" style="endArrow=none;html=1;rounded=0;entryX=0;entryY=0.5;entryDx=0;entryDy=0;exitX=1;exitY=0.5;exitDx=0;exitDy=0;fontSize=8;" edge="1" parent="1" source="Il4r_xvN1UmDkrC7rbbu-41" target="Il4r_xvN1UmDkrC7rbbu-39">
          <mxGeometry width="50" height="50" relative="1" as="geometry">
            <mxPoint x="679.3199999999999" y="549.83" as="sourcePoint" />
            <mxPoint x="709.3199999999999" y="550" as="targetPoint" />
          </mxGeometry>
        </mxCell>
        <mxCell id="Il4r_xvN1UmDkrC7rbbu-45" value="License系统" style="rounded=0;whiteSpace=wrap;html=1;fillColor=#dae8fc;strokeColor=#6c8ebf;fontSize=8;" vertex="1" parent="1">
          <mxGeometry x="749.3199999999999" y="537" width="70" height="25" as="geometry" />
        </mxCell>
        <mxCell id="Il4r_xvN1UmDkrC7rbbu-46" value="网关" style="rounded=0;whiteSpace=wrap;html=1;fillColor=#dae8fc;strokeColor=#6c8ebf;fontSize=8;" vertex="1" parent="1">
          <mxGeometry x="103" y="450" width="30" height="20" as="geometry" />
        </mxCell>
        <mxCell id="Il4r_xvN1UmDkrC7rbbu-47" value="入网公网IP" style="rounded=0;whiteSpace=wrap;html=1;fillColor=#dae8fc;strokeColor=#6c8ebf;fontSize=8;" vertex="1" parent="1">
          <mxGeometry x="20" y="350" width="70" height="20" as="geometry" />
        </mxCell>
        <mxCell id="Il4r_xvN1UmDkrC7rbbu-48" value="" style="endArrow=none;html=1;rounded=0;entryX=0.5;entryY=0;entryDx=0;entryDy=0;exitX=0.5;exitY=1;exitDx=0;exitDy=0;fontSize=8;" edge="1" parent="1" source="Il4r_xvN1UmDkrC7rbbu-47" target="Il4r_xvN1UmDkrC7rbbu-46">
          <mxGeometry width="50" height="50" relative="1" as="geometry">
            <mxPoint x="-130" y="564.78" as="sourcePoint" />
            <mxPoint x="-30" y="564.7099999999998" as="targetPoint" />
          </mxGeometry>
        </mxCell>
        <mxCell id="Il4r_xvN1UmDkrC7rbbu-49" value="出网公网IP" style="rounded=0;whiteSpace=wrap;html=1;fillColor=#dae8fc;strokeColor=#6c8ebf;fontSize=8;" vertex="1" parent="1">
          <mxGeometry x="139" y="350" width="70" height="20" as="geometry" />
        </mxCell>
        <mxCell id="Il4r_xvN1UmDkrC7rbbu-50" value="" style="endArrow=none;html=1;rounded=0;exitX=0.5;exitY=1;exitDx=0;exitDy=0;entryX=0.5;entryY=0;entryDx=0;entryDy=0;fontSize=8;" edge="1" parent="1" source="Il4r_xvN1UmDkrC7rbbu-49" target="Il4r_xvN1UmDkrC7rbbu-46">
          <mxGeometry width="50" height="50" relative="1" as="geometry">
            <mxPoint x="-100" y="595" as="sourcePoint" />
            <mxPoint x="115" y="450" as="targetPoint" />
          </mxGeometry>
        </mxCell>
        <mxCell id="Il4r_xvN1UmDkrC7rbbu-53" value="" style="endArrow=none;html=1;rounded=0;entryX=0.443;entryY=0;entryDx=0;entryDy=0;exitX=0.5;exitY=1;exitDx=0;exitDy=0;exitPerimeter=0;entryPerimeter=0;fontSize=8;" edge="1" parent="1" source="Il4r_xvN1UmDkrC7rbbu-33" target="Il4r_xvN1UmDkrC7rbbu-49">
          <mxGeometry width="50" height="50" relative="1" as="geometry">
            <mxPoint x="120" y="271" as="sourcePoint" />
            <mxPoint x="183" y="351" as="targetPoint" />
          </mxGeometry>
        </mxCell>
        <mxCell id="Il4r_xvN1UmDkrC7rbbu-54" value="" style="endArrow=none;html=1;rounded=0;entryX=0.5;entryY=0;entryDx=0;entryDy=0;exitX=0.5;exitY=1;exitDx=0;exitDy=0;exitPerimeter=0;fontSize=8;" edge="1" parent="1" source="Il4r_xvN1UmDkrC7rbbu-33" target="Il4r_xvN1UmDkrC7rbbu-47">
          <mxGeometry width="50" height="50" relative="1" as="geometry">
            <mxPoint x="50" y="271" as="sourcePoint" />
            <mxPoint x="106.00999999999999" y="350" as="targetPoint" />
          </mxGeometry>
        </mxCell>
        <mxCell id="Il4r_xvN1UmDkrC7rbbu-56" value="" style="endArrow=none;html=1;rounded=0;fontSize=8;exitX=0.469;exitY=1;exitDx=0;exitDy=0;exitPerimeter=0;entryX=0.445;entryY=-0.019;entryDx=0;entryDy=0;entryPerimeter=0;" edge="1" parent="1" target="Il4r_xvN1UmDkrC7rbbu-57">
          <mxGeometry width="50" height="50" relative="1" as="geometry">
            <mxPoint x="309.99400000000014" y="709" as="sourcePoint" />
            <mxPoint x="312" y="739" as="targetPoint" />
          </mxGeometry>
        </mxCell>
        <mxCell id="Il4r_xvN1UmDkrC7rbbu-58" value="存储" style="rounded=0;whiteSpace=wrap;html=1;strokeColor=none;fillColor=none;fontSize=8;" vertex="1" parent="1">
          <mxGeometry x="204" y="739" width="66" height="20" as="geometry" />
        </mxCell>
        <mxCell id="Il4r_xvN1UmDkrC7rbbu-61" value="ElasticSearch" style="rounded=0;whiteSpace=wrap;html=1;fillColor=#dae8fc;strokeColor=#6c8ebf;fontSize=8;" vertex="1" parent="1">
          <mxGeometry x="350" y="764" width="81" height="20" as="geometry" />
        </mxCell>
        <mxCell id="Il4r_xvN1UmDkrC7rbbu-63" value="Mysql" style="rounded=0;whiteSpace=wrap;html=1;fillColor=#dae8fc;strokeColor=#6c8ebf;fontSize=8;" vertex="1" parent="1">
          <mxGeometry x="229.5" y="764" width="50.5" height="20" as="geometry" />
        </mxCell>
        <mxCell id="Il4r_xvN1UmDkrC7rbbu-64" value="Redis" style="rounded=0;whiteSpace=wrap;html=1;fillColor=#dae8fc;strokeColor=#6c8ebf;fontSize=8;" vertex="1" parent="1">
          <mxGeometry x="291.75" y="764" width="50.5" height="20" as="geometry" />
        </mxCell>
        <mxCell id="Il4r_xvN1UmDkrC7rbbu-65" value="钥匙服务" style="rounded=0;whiteSpace=wrap;html=1;fillColor=#dae8fc;strokeColor=#6c8ebf;fontSize=8;" vertex="1" parent="1">
          <mxGeometry x="510" y="585" width="53" height="20" as="geometry" />
        </mxCell>
        <mxCell id="Il4r_xvN1UmDkrC7rbbu-66" value="KTS服务" style="rounded=0;whiteSpace=wrap;html=1;fillColor=#dae8fc;strokeColor=#6c8ebf;fontSize=8;" vertex="1" parent="1">
          <mxGeometry x="257" y="620" width="53" height="20" as="geometry" />
        </mxCell>
        <mxCell id="Il4r_xvN1UmDkrC7rbbu-67" value="生产服务" style="rounded=0;whiteSpace=wrap;html=1;fillColor=#dae8fc;strokeColor=#6c8ebf;fontSize=8;" vertex="1" parent="1">
          <mxGeometry x="322" y="620" width="53" height="20" as="geometry" />
        </mxCell>
        <mxCell id="Il4r_xvN1UmDkrC7rbbu-68" value="用户服务" style="rounded=0;whiteSpace=wrap;html=1;fillColor=#dae8fc;strokeColor=#6c8ebf;fontSize=8;" vertex="1" parent="1">
          <mxGeometry x="386" y="620" width="53" height="20" as="geometry" />
        </mxCell>
        <mxCell id="Il4r_xvN1UmDkrC7rbbu-69" value="tspAgent" style="rounded=0;whiteSpace=wrap;html=1;fillColor=#dae8fc;strokeColor=#6c8ebf;fontSize=8;" vertex="1" parent="1">
          <mxGeometry x="450" y="620" width="60" height="20" as="geometry" />
        </mxCell>
        <mxCell id="Il4r_xvN1UmDkrC7rbbu-70" value="OMS认证服务" style="rounded=0;whiteSpace=wrap;html=1;fillColor=#dae8fc;strokeColor=#6c8ebf;fontSize=8;" vertex="1" parent="1">
          <mxGeometry x="513" y="620" width="87" height="20" as="geometry" />
        </mxCell>
      </root>
    </mxGraphModel>
  </diagram>
</mxfile>
